# xmcd CD database file
#
# Track frame offsets:
#	150
#	17242
#	40074
#	59747
#	78925
#	98840
#	127108
#	147753
#	172727
#	197629
#	233488
#	256547
#
# Disc length: 3634 seconds
#
# Revision: 0
# Processed by: cddbd v1.4PL0 Copyright (c) Steve Scherf et al.
# Submitted via: NeoAudio 9.9.9
#
DISCID=930e300c
DTITLE=Kinny Abair - A Very Good Day
DYEAR=1998
DGENRE=Blues
TTITLE0=Shes Littl3e and Low
TTITLE1=Wig Song
TTITLE2=Jump Jump Here
TTITLE3=Mr. Charley
TTITLE4=Susy "Q"
TTITLE5=Graveyard Blues
TTITLE6=Bowlegged Woman
TTITLE7=Beter Watch Yourself
TTITLE8=Nothing is Better Than You Love
TTITLE9=All Night Long
TTITLE10=All Night Long
TTITLE11=A Very Good Day
EXTD=YEAR: 1998
EXTT0=
EXTT1=
EXTT2=
EXTT3=
EXTT4=
EXTT5=
EXTT6=
EXTT7=
EXTT8=
EXTT9=
EXTT10=
EXTT11=
PLAYORDER=
